<?xml version="1.0" encoding="UTF-8" standalone="no"?>
<!-- Created with Inkscape (http://www.inkscape.org/) -->
<!-- Source image: https://www.flaticon.com/free-icon/mochi_5392004 -->

<svg
		xmlns:inkscape="http://www.inkscape.org/namespaces/inkscape"
		xmlns:sodipodi="http://sodipodi.sourceforge.net/DTD/sodipodi-0.dtd"
		width="100mm"
		height="100mm"
		viewBox="0 0 100 99.999997"
		version="1.1"
		id="svg5"
		sodipodi:docname="mochi.svg"
		inkscape:version="1.1.2 (1:1.1+202202050950+0a00cf5339)"
		xmlns="http://www.w3.org/2000/svg"
>
	<sodipodi:namedview
			id="namedview7"
			pagecolor="#000000"
			bordercolor="#666666"
			borderopacity="1.0"
			inkscape:pageshadow="2"
			inkscape:pageopacity="0"
			inkscape:pagecheckerboard="true"
			inkscape:document-units="mm"
			showgrid="false"
			inkscape:zoom="1.4142136"
			inkscape:cx="128.33988"
			inkscape:cy="254.55844"
			inkscape:window-width="1920"
			inkscape:window-height="1007"
			inkscape:window-x="0"
			inkscape:window-y="44"
			inkscape:window-maximized="1"
			inkscape:current-layer="layer2"
			fit-margin-top="0"
			fit-margin-left="0"
			fit-margin-right="0"
			fit-margin-bottom="0"
			width="120mm"/>
	<defs
			id="defs2"/>
	<g
			inkscape:label="Слой 1"
			inkscape:groupmode="layer"
			id="layer1"
			transform="translate(-44.737202,-67.807678)">
		<g
				id="g637"
				transform="translate(-1.8000249,9.9550588)"/>
		<g
				inkscape:groupmode="layer"
				id="layer3"
				inkscape:label="green">
			<g
					id="g9381"
					transform="matrix(0.73992929,0,0,0.74958725,10.302944,24.442092)">
				<path
						style="fill:#d0ef9d;stroke-width:0.264583"
						d="m 69.35694,137.89312 c -9.3017,-1.44558 -17.24881,-7.79995 -20.6979,-16.54965 -3.55592,-9.02072 -2.6443,-18.84027 2.74959,-29.6175 9.15946,-18.300963 24.50366,-30.308717 42.43339,-33.20667 2.25338,-0.364211 2.76601,-0.364282 5.02546,-6.99e-4 8.92921,1.436853 17.48116,5.276915 25.00894,11.229707 9.49568,7.508966 18.29724,20.781336 20.89461,31.508172 0.92187,3.80722 1.28705,8.29879 0.9454,11.62807 -0.15206,1.48178 -0.27647,2.85258 -0.27647,3.04622 0,0.26064 -0.59196,0.15196 -2.27975,-0.41854 -5.65359,-1.91104 -11.63233,-2.7717 -17.81042,-2.56387 -10.90925,0.36698 -20.85133,3.90879 -30.04837,10.70457 -3.14406,2.32317 -9.31808,8.51893 -11.87013,11.9119 l -2.03983,2.71198 -4.95127,-0.0262 c -2.7232,-0.0144 -5.91066,-0.17528 -7.08325,-0.35751 z"
						id="path647"
						sodipodi:nodetypes="cscsssssscssscccc"/>
				<path
						style="fill:#baea6b;stroke-width:0.264583"
						d="m 145.40517,116.09953 c 0.0388,-0.50954 -0.0617,-0.50007 0.18268,-2.98109 0.71622,-7.27182 -1.05319,-14.436184 -5.24685,-22.475781 C 133.83606,78.172174 124.7869,68.70184 113.29309,63.133914 108.19374,60.663648 104.17878,59.865863 98.947649,58.772149 L 96.470538,58.25424 99.27017,57.969969 c 4.90427,-0.497973 12.67858,0.633696 18.5024,2.54607 13.97148,4.587823 25.96934,15.268411 33.61361,29.923104 4.62428,8.86511 6.17653,16.818537 4.86967,24.951197 -0.30821,1.91801 -0.56467,4.61431 -0.78711,4.56874 -4.0899,-1.6687 -6.43546,-2.47349 -10.06357,-3.85955 z"
						id="path645"
						sodipodi:nodetypes="csssscsssscc"/>
				<path
						style="fill:#8ac626;stroke-width:0.264583"
						d="m 92.949805,98.374772 c -0.32758,-0.32758 -0.52916,-0.881943 -0.52916,-1.455208 0,-1.801892 1.92997,-2.648183 3.12888,-1.37201 1.19593,1.273011 0.40339,3.356385 -1.2768,3.356385 -0.44097,0 -1.02894,-0.235185 -1.32292,-0.529167 z M 78.166237,96.1509 c -0.93127,-0.344498 -1.455502,-1.247584 -1.378729,-2.11843 0.09126,-1.035211 0.986483,-2.061076 2.167865,-2.027487 1.03201,0.02934 1.888474,1.092177 1.888474,2.136651 0,1.406115 -1.402579,2.480929 -2.67761,2.009266 z M 93.952635,84.072035 c -0.58957,-0.343713 -0.87329,-1.883873 -0.48179,-2.6154 1.0133,-1.893371 4.2374,-0.498958 3.58669,1.551234 -0.39087,1.231522 -1.91928,1.755365 -3.1049,1.064166 z"
						id="path639"
						sodipodi:nodetypes="ssssssssssssss"/>
			</g>
		</g>
		<g
				inkscape:groupmode="layer"
				id="layer2"
				inkscape:label="white">
			<g
					id="g9376"
					transform="matrix(0.73992929,0,0,0.74958725,10.698698,24.384445)">
				<path
						style="fill:#f8f2f0;stroke-width:0.264583"
						d="m 94.16125,191.00133 c -9.0368,-1.61147 -16.64021,-7.7879 -20.132668,-16.35423 -1.53397,-3.76253 -2.0457,-6.56472 -2.05925,-11.27643 -0.0186,-6.46808 1.23547,-11.41581 4.62382,-18.24242 8.166048,-16.4524 21.628388,-28.092 37.341138,-32.28531 4.96807,-1.32584 7.56973,-1.6169 10.38946,-1.16228 10.45163,1.68506 20.19865,6.61814 28.68154,14.51604 6.33873,5.90161 13.30736,16.57636 16.01921,24.53868 3.62408,10.64077 2.68567,20.92662 -2.63936,28.92964 -3.65758,5.497 -8.95871,9.24437 -15.60306,11.02979 -2.09107,0.5619 -2.43331,0.56948 -28.31041,0.62638 -21.70854,0.0477 -26.55619,-0.007 -28.31042,-0.31986 z"
						id="path651"
						sodipodi:nodetypes="csssscsssscc"/>
				<path
						style="fill:#ede1db;stroke-width:0.264583"
						d="m 146.68843,191.0529 c 8.04246,-1.17698 14.50227,-5.16412 18.77806,-11.59024 6.4894,-9.75296 6.43222,-22.37123 -0.16036,-35.38894 -6.489,-12.81317 -16.11693,-22.54939 -27.80069,-28.11337 -5.05514,-2.40733 -10.61562,-3.81103 -14.77082,-4.28113 -2.65985,-0.30093 -0.95006,-0.89 3.10433,-0.89437 17.12083,-0.0185 32.83058,8.17961 43.88995,22.90382 11.10003,14.77833 14.22613,29.47509 8.86584,41.68106 -3.31447,7.5474 -9.63237,12.89683 -17.77645,15.05149 -1.94612,0.51488 -3.01602,0.59825 -8.57361,0.66807 -3.4925,0.0439 -5.99281,0.0275 -5.55625,-0.0364 z"
						id="path649"
						sodipodi:nodetypes="ssssscssssss"/>
				<path
						style="fill:#d67e49;stroke-width:0.264583"
						d="m 98.059161,170.86619 c -3.14661,-0.45953 -5.92984,-2.31772 -7.26671,-4.85154 -0.62977,-1.19362 -0.706871,-1.62863 -0.707061,-3.98927 -2e-4,-2.62092 0.0134,-2.67775 1.260311,-5.25683 9.809329,-20.28991 30.301209,-27.30099 47.122639,-16.12247 5.19843,3.45456 9.94621,8.98558 13.18357,15.35844 1.61767,3.18444 1.64553,3.27598 1.75433,5.76357 0.10532,2.40813 0.0712,2.60763 -0.72058,4.21601 -1.35535,2.7531 -3.66511,4.32918 -7.17026,4.89266 -2.09432,0.33668 -45.14413,0.32709 -47.456239,-0.0106 z"
						id="path641"/>
			</g>
		</g>
	</g>
</svg>
